# Blender 4.1.1
# www.blender.org
mtllib room.mtl
o Plane
v -1.000000 0.000000 1.000000
v 1.000000 0.000000 1.000000
v -1.000000 0.000000 -1.000000
v 1.000000 0.000000 -1.000000
v -1.000000 0.443024 -1.000000
v -1.000000 0.443024 1.000000
v 1.000000 0.443024 1.000000
v 1.000000 0.443024 -1.000000
v -0.001997 0.000000 1.000000
v -0.001997 0.000000 -1.000000
v -0.001997 0.443024 1.000000
v -0.001997 0.443024 -1.000000
v -1.000000 0.000000 0.000000
v 1.000000 0.000000 0.000000
v -1.000000 0.443024 0.000000
v 1.000000 0.443024 0.000000
v -0.001997 0.000000 0.000000
v -0.500999 0.000000 -1.000000
v -0.500999 0.443024 -1.000000
v -0.500999 0.000000 1.000000
v -0.500999 0.443024 1.000000
v -0.500999 0.000000 0.000000
v -0.251498 0.000000 1.000000
v -0.251498 0.443024 1.000000
v -0.251498 0.000000 0.000000
v -0.251498 0.000000 -1.000000
v -0.251498 0.443024 -1.000000
v -0.750499 0.000000 -1.000000
v -0.750499 0.443024 -1.000000
v -0.750499 0.000000 1.000000
v -0.750499 0.443024 1.000000
v -0.750499 0.000000 0.000000
v -1.000000 0.000000 0.503918
v -1.000000 0.443024 0.503918
v -0.001997 0.000000 0.503918
v 1.000000 0.000000 0.503918
v 1.000000 0.443024 0.503918
v -0.500999 0.000000 0.503918
v -0.251498 0.000000 0.503918
v -0.750499 0.000000 0.503918
v 1.000000 0.000000 0.266157
v 1.000000 0.443024 0.266157
v -1.000000 0.000000 0.266157
v -1.000000 0.443024 0.266157
v -0.001997 0.000000 0.266157
v -0.500999 0.000000 0.266157
v -0.251498 0.000000 0.266157
v -0.750499 0.000000 0.266157
v -1.000000 0.000000 0.746633
v -1.000000 0.443024 0.746633
v -0.001997 0.000000 0.746633
v -0.500999 0.000000 0.746633
v -0.251498 0.000000 0.746633
v -0.750499 0.000000 0.746633
v 1.000000 0.000000 0.746633
v 1.000000 0.443024 0.746633
v -0.500999 0.127307 0.503918
v -0.251498 0.127307 0.503918
v -0.500999 0.127307 0.746633
v -0.251498 0.127307 0.746633
v -1.000000 0.163180 0.266157
v -1.000000 0.163180 0.503918
v -0.750499 0.163180 0.266157
v -0.750499 0.163180 0.503918
vn -0.0000 1.0000 -0.0000
vn -0.0000 -0.0000 -1.0000
vn -1.0000 -0.0000 -0.0000
vn 1.0000 -0.0000 -0.0000
vn -0.0000 -0.0000 1.0000
vt 1.000000 0.500000
vt 0.499001 1.000000
vt 0.499001 0.500000
vt 0.374251 0.000000
vt 0.499001 0.000000
vt 0.374251 0.000000
vt 1.000000 1.000000
vt 0.000000 0.126683
vt 0.000000 0.000000
vt 0.124750 1.000000
vt 0.000000 1.000000
vt 0.124750 1.000000
vt 0.499001 0.000000
vt 1.000000 0.000000
vt 0.374251 1.000000
vt 0.374251 0.500000
vt 0.499001 0.366922
vt 0.374251 0.366922
vt 0.000000 0.500000
vt 1.000000 0.366922
vt 1.000000 0.366922
vt 0.249501 0.366922
vt 0.124750 0.500000
vt 0.124750 0.366922
vt 0.249501 0.500000
vt 0.374251 1.000000
vt 0.249501 1.000000
vt 0.124750 0.000000
vt 0.249501 0.000000
vt 0.124750 0.000000
vt 0.499001 1.000000
vt 0.249501 0.000000
vt 0.000000 0.366922
vt 0.249501 1.000000
vt 0.124750 0.126683
vt 0.000000 0.248041
vt 0.249501 0.126683
vt 0.249501 0.248041
vt 0.124750 0.248041
vt 1.000000 0.126683
vt 0.499001 0.248041
vt 0.499001 0.126683
vt 1.000000 0.248041
vt 0.374251 0.248041
vt 0.374251 0.126683
s 0
f 14/1/1 10/2/1 17/3/1
f 24/4/2 9/5/2 23/6/2
f 16/1/3 4/7/3 14/1/3
f 50/8/4 1/9/4 49/8/4
f 29/10/5 3/11/5 28/12/5
f 11/13/2 2/14/2 9/5/2
f 8/7/5 10/2/5 4/7/5
f 17/3/1 26/15/1 25/16/1
f 45/17/1 25/16/1 47/18/1
f 5/11/4 13/19/4 3/11/4
f 42/20/3 14/1/3 41/21/3
f 41/21/1 17/3/1 45/17/1
f 46/22/1 32/23/1 48/24/1
f 22/25/1 28/12/1 32/23/1
f 27/26/5 18/27/5 26/15/5
f 31/28/2 20/29/2 30/30/2
f 12/31/5 26/15/5 10/2/5
f 47/18/1 22/25/1 46/22/1
f 25/16/1 18/27/1 22/25/1
f 21/32/2 23/6/2 20/29/2
f 6/9/2 30/30/2 1/9/2
f 32/23/1 3/11/1 13/19/1
f 48/24/1 13/19/1 43/33/1
f 19/34/5 28/12/5 18/27/5
f 54/35/1 33/36/1 49/8/1
f 59/37/3 38/38/3 52/37/3
f 52/37/1 40/39/1 54/35/1
f 55/40/1 35/41/1 51/42/1
f 56/40/3 36/43/3 55/40/3
f 51/42/1 39/44/1 53/45/1
f 44/33/4 33/36/4 43/33/4
f 15/19/4 43/33/4 13/19/4
f 61/33/2 48/24/2 43/33/2
f 39/44/1 46/22/1 38/38/1
f 38/38/1 48/24/1 40/39/1
f 36/43/1 45/17/1 35/41/1
f 37/43/3 41/21/3 36/43/3
f 35/41/1 47/18/1 39/44/1
f 9/5/1 53/45/1 23/6/1
f 7/14/3 55/40/3 2/14/3
f 2/14/1 51/42/1 9/5/1
f 20/29/1 54/35/1 30/30/1
f 23/6/1 52/37/1 20/29/1
f 30/30/1 49/8/1 1/9/1
f 34/36/4 49/8/4 33/36/4
f 60/45/1 57/38/1 59/37/1
f 57/38/2 39/44/2 38/38/2
f 60/45/5 52/37/5 53/45/5
f 58/44/4 53/45/4 39/44/4
f 64/39/1 61/33/1 62/36/1
f 43/33/4 62/36/4 33/36/4
f 63/24/4 40/39/4 48/24/4
f 64/39/5 33/36/5 40/39/5
f 14/1/1 4/7/1 10/2/1
f 24/4/2 11/13/2 9/5/2
f 16/1/3 8/7/3 4/7/3
f 50/8/4 6/9/4 1/9/4
f 29/10/5 5/11/5 3/11/5
f 11/13/2 7/14/2 2/14/2
f 8/7/5 12/31/5 10/2/5
f 17/3/1 10/2/1 26/15/1
f 45/17/1 17/3/1 25/16/1
f 5/11/4 15/19/4 13/19/4
f 42/20/3 16/1/3 14/1/3
f 41/21/1 14/1/1 17/3/1
f 46/22/1 22/25/1 32/23/1
f 22/25/1 18/27/1 28/12/1
f 27/26/5 19/34/5 18/27/5
f 31/28/2 21/32/2 20/29/2
f 12/31/5 27/26/5 26/15/5
f 47/18/1 25/16/1 22/25/1
f 25/16/1 26/15/1 18/27/1
f 21/32/2 24/4/2 23/6/2
f 6/9/2 31/28/2 30/30/2
f 32/23/1 28/12/1 3/11/1
f 48/24/1 32/23/1 13/19/1
f 19/34/5 29/10/5 28/12/5
f 54/35/1 40/39/1 33/36/1
f 59/37/3 57/38/3 38/38/3
f 52/37/1 38/38/1 40/39/1
f 55/40/1 36/43/1 35/41/1
f 56/40/3 37/43/3 36/43/3
f 51/42/1 35/41/1 39/44/1
f 44/33/4 34/36/4 33/36/4
f 15/19/4 44/33/4 43/33/4
f 61/33/2 63/24/2 48/24/2
f 39/44/1 47/18/1 46/22/1
f 38/38/1 46/22/1 48/24/1
f 36/43/1 41/21/1 45/17/1
f 37/43/3 42/20/3 41/21/3
f 35/41/1 45/17/1 47/18/1
f 9/5/1 51/42/1 53/45/1
f 7/14/3 56/40/3 55/40/3
f 2/14/1 55/40/1 51/42/1
f 20/29/1 52/37/1 54/35/1
f 23/6/1 53/45/1 52/37/1
f 30/30/1 54/35/1 49/8/1
f 34/36/4 50/8/4 49/8/4
f 60/45/1 58/44/1 57/38/1
f 57/38/2 58/44/2 39/44/2
f 60/45/5 59/37/5 52/37/5
f 58/44/4 60/45/4 53/45/4
f 64/39/1 63/24/1 61/33/1
f 43/33/4 61/33/4 62/36/4
f 63/24/4 64/39/4 40/39/4
f 64/39/5 62/36/5 33/36/5
